STARTFONT 2.1
COMMENT Based on standard 12x24 fixed bold font.
COMMENT Created 2000 by S. Winitzki.
COMMENT May be distributed and modified without restrictions.
COMMENT $XFree86$
FONT -Misc-Fixed-Bold-R-Normal--24-170-100-100-C-120-KOI8-R
SIZE 17 100 100
FONTBOUNDINGBOX 12 25 0 -2
STARTPROPERTIES 24
FONTNAME_REGISTRY ""
FOUNDRY "misc"
FAMILY_NAME "Fixed"
WEIGHT_NAME "Bold"
SLANT "R"
SETWIDTH_NAME "Normal"
ADD_STYLE_NAME ""
PIXEL_SIZE 24
POINT_SIZE 170
RESOLUTION_X 100
RESOLUTION_Y 100
SPACING "C"
AVERAGE_WIDTH 120
CHARSET_REGISTRY "KOI8"
CHARSET_ENCODING "R"
X_HEIGHT 14
WEIGHT 10
RESOLUTION 138
QUAD_WIDTH 12
DEFAULT_CHAR 32
FONT_ASCENT 22
FONT_DESCENT 2
_XMBDFED_INFO "Edited with xmbdfed 4.3."
_XFREE86_GLYPH_RANGES "0_126 149 152_154 156_158 163 179 191_255"
ENDPROPERTIES
CHARS 201
STARTCHAR char80
ENCODING 0
SWIDTH 508 0
DWIDTH 12 0
BBX 12 25 0 -2
BITMAP
0000
0000
0000
E070
C030
C030
0000
8010
C030
8010
0000
0000
0000
0000
0000
0000
0000
0000
0000
C030
C030
E070
0000
0000
0000
ENDCHAR
STARTCHAR uni25C6
ENCODING 1
SWIDTH 508 0
DWIDTH 12 0
BBX 12 25 0 -2
BITMAP
0000
0400
0400
0E00
0E00
1F00
1F00
3F80
3F80
7FC0
7FC0
FFE0
7FC0
7FC0
3F80
3F80
1F00
1F00
0E00
0E00
0400
0400
0000
0000
0000
ENDCHAR
STARTCHAR shade
ENCODING 2
SWIDTH 508 0
DWIDTH 12 0
BBX 12 25 0 -2
BITMAP
0000
C630
C630
C630
30C0
30C0
30C0
C630
C630
C630
30C0
30C0
30C0
C630
C630
C630
30C0
30C0
30C0
C630
C630
C630
0000
0000
0000
ENDCHAR
STARTCHAR uni2409
ENCODING 3
SWIDTH 508 0
DWIDTH 12 0
BBX 12 25 0 -2
BITMAP
0000
0000
0000
C600
C600
C600
C600
FE00
C600
C600
C600
C600
0000
0000
3FC0
0600
0600
0600
0600
0600
0600
0600
0000
0000
0000
ENDCHAR
STARTCHAR uni240C
ENCODING 4
SWIDTH 508 0
DWIDTH 12 0
BBX 12 25 0 -2
BITMAP
0000
0000
0000
FE00
C000
C000
C000
FC00
C000
C000
C000
C000
0000
1FC0
1800
1800
1800
1F80
1800
1800
1800
1800
0000
0000
0000
ENDCHAR
STARTCHAR uni240D
ENCODING 5
SWIDTH 508 0
DWIDTH 12 0
BBX 12 25 0 -2
BITMAP
0000
0000
0000
3C00
6600
C600
C000
C000
C000
C000
6600
3C00
0000
1F80
18C0
18C0
18C0
1F80
1900
1980
18C0
18C0
0000
0000
0000
ENDCHAR
STARTCHAR uni240A
ENCODING 6
SWIDTH 508 0
DWIDTH 12 0
BBX 12 25 0 -2
BITMAP
0000
0000
0000
C000
C000
C000
C000
C000
C000
C000
C000
FE00
0000
1FC0
1800
1800
1800
1F80
1800
1800
1800
1800
0000
0000
0000
ENDCHAR
STARTCHAR degree
ENCODING 7
SWIDTH 508 0
DWIDTH 12 0
BBX 12 25 0 -2
BITMAP
0000
0000
0000
0000
0000
0E00
1B00
3180
3180
1B00
0E00
0000
0000
0000
0000
0000
0000
0000
0000
0000
0000
0000
0000
0000
0000
ENDCHAR
STARTCHAR plusminus
ENCODING 8
SWIDTH 508 0
DWIDTH 12 0
BBX 12 25 0 -2
BITMAP
0000
0000
0000
0000
0C00
0C00
0C00
0C00
0C00
0C00
FFC0
FFC0
0C00
0C00
0C00
0C00
0C00
0C00
0000
FFC0
FFC0
0000
0000
0000
0000
ENDCHAR
STARTCHAR uni2424
ENCODING 9
SWIDTH 508 0
DWIDTH 12 0
BBX 12 25 0 -2
BITMAP
0000
0000
0000
E300
E300
D300
D300
CB00
CB00
C700
C700
C300
0000
1800
1800
1800
1800
1800
1800
1800
1800
1FC0
0000
0000
0000
ENDCHAR
STARTCHAR uni240B
ENCODING 10
SWIDTH 508 0
DWIDTH 12 0
BBX 12 25 0 -2
BITMAP
0000
0000
0000
C180
C180
6300
6300
3600
3600
1C00
1C00
0800
0000
0000
3FC0
0600
0600
0600
0600
0600
0600
0600
0000
0000
0000
ENDCHAR
STARTCHAR SF040000
ENCODING 11
SWIDTH 508 0
DWIDTH 12 0
BBX 12 25 0 -2
BITMAP
0600
0600
0600
0600
0600
0600
0600
0600
0600
0600
0600
FE00
FE00
0000
0000
0000
0000
0000
0000
0000
0000
0000
0000
0000
0000
ENDCHAR
STARTCHAR SF030000
ENCODING 12
SWIDTH 508 0
DWIDTH 12 0
BBX 12 25 0 -2
BITMAP
0000
0000
0000
0000
0000
0000
0000
0000
0000
0000
0000
FE00
FE00
0600
0600
0600
0600
0600
0600
0600
0600
0600
0600
0600
0600
ENDCHAR
STARTCHAR SF010000
ENCODING 13
SWIDTH 508 0
DWIDTH 12 0
BBX 12 25 0 -2
BITMAP
0000
0000
0000
0000
0000
0000
0000
0000
0000
0000
0000
07F0
07F0
0600
0600
0600
0600
0600
0600
0600
0600
0600
0600
0600
0600
ENDCHAR
STARTCHAR SF020000
ENCODING 14
SWIDTH 508 0
DWIDTH 12 0
BBX 12 25 0 -2
BITMAP
0600
0600
0600
0600
0600
0600
0600
0600
0600
0600
0600
07F0
07F0
0000
0000
0000
0000
0000
0000
0000
0000
0000
0000
0000
0000
ENDCHAR
STARTCHAR SF050000
ENCODING 15
SWIDTH 508 0
DWIDTH 12 0
BBX 12 25 0 -2
BITMAP
0600
0600
0600
0600
0600
0600
0600
0600
0600
0600
0600
FFF0
FFF0
0600
0600
0600
0600
0600
0600
0600
0600
0600
0600
0600
0600
ENDCHAR
STARTCHAR char16
ENCODING 16
SWIDTH 508 0
DWIDTH 12 0
BBX 12 25 0 -2
BITMAP
0000
0000
0000
7FF0
7FF0
0000
0000
0000
0000
0000
0000
0000
0000
0000
0000
0000
0000
0000
0000
0000
0000
0000
0000
0000
0000
ENDCHAR
STARTCHAR char17
ENCODING 17
SWIDTH 508 0
DWIDTH 12 0
BBX 12 25 0 -2
BITMAP
0000
0000
0000
0000
0000
0000
7FF0
7FF0
0000
0000
0000
0000
0000
0000
0000
0000
0000
0000
0000
0000
0000
0000
0000
0000
0000
ENDCHAR
STARTCHAR char18
ENCODING 18
SWIDTH 508 0
DWIDTH 12 0
BBX 12 25 0 -2
BITMAP
0000
0000
0000
0000
0000
0000
0000
0000
0000
0000
0000
7FF0
7FF0
0000
0000
0000
0000
0000
0000
0000
0000
0000
0000
0000
0000
ENDCHAR
STARTCHAR char19
ENCODING 19
SWIDTH 508 0
DWIDTH 12 0
BBX 12 25 0 -2
BITMAP
0000
0000
0000
0000
0000
0000
0000
0000
0000
0000
0000
0000
0000
0000
7FF0
7FF0
0000
0000
0000
0000
0000
0000
0000
0000
0000
ENDCHAR
STARTCHAR char20
ENCODING 20
SWIDTH 508 0
DWIDTH 12 0
BBX 12 25 0 -2
BITMAP
0000
0000
0000
0000
0000
0000
0000
0000
0000
0000
0000
0000
0000
0000
0000
0000
0000
7FF0
7FF0
0000
0000
0000
0000
0000
0000
ENDCHAR
STARTCHAR SF080000
ENCODING 21
SWIDTH 508 0
DWIDTH 12 0
BBX 12 25 0 -2
BITMAP
0600
0600
0600
0600
0600
0600
0600
0600
0600
0600
0600
07F0
07F0
0600
0600
0600
0600
0600
0600
0600
0600
0600
0600
0600
0600
ENDCHAR
STARTCHAR SF090000
ENCODING 22
SWIDTH 508 0
DWIDTH 12 0
BBX 12 25 0 -2
BITMAP
0600
0600
0600
0600
0600
0600
0600
0600
0600
0600
0600
FE00
FE00
0600
0600
0600
0600
0600
0600
0600
0600
0600
0600
0600
0600
ENDCHAR
STARTCHAR SF070000
ENCODING 23
SWIDTH 508 0
DWIDTH 12 0
BBX 12 25 0 -2
BITMAP
0600
0600
0600
0600
0600
0600
0600
0600
0600
0600
0600
FFF0
FFF0
0000
0000
0000
0000
0000
0000
0000
0000
0000
0000
0000
0000
ENDCHAR
STARTCHAR SF060000
ENCODING 24
SWIDTH 508 0
DWIDTH 12 0
BBX 12 25 0 -2
BITMAP
0000
0000
0000
0000
0000
0000
0000
0000
0000
0000
0000
FFF0
FFF0
0600
0600
0600
0600
0600
0600
0600
0600
0600
0600
0600
0600
ENDCHAR
STARTCHAR SF110000
ENCODING 25
SWIDTH 508 0
DWIDTH 12 0
BBX 12 25 0 -2
BITMAP
0600
0600
0600
0600
0600
0600
0600
0600
0600
0600
0600
0600
0600
0600
0600
0600
0600
0600
0600
0600
0600
0600
0600
0600
0600
ENDCHAR
STARTCHAR lessequal
ENCODING 26
SWIDTH 508 0
DWIDTH 12 0
BBX 12 25 0 -2
BITMAP
0000
0000
0000
0000
0000
0000
0000
0000
0040
00C0
0380
0E00
3800
E000
3800
0E00
0380
00C0
0040
FFC0
0000
FFC0
0000
0000
0000
ENDCHAR
STARTCHAR greaterequal
ENCODING 27
SWIDTH 508 0
DWIDTH 12 0
BBX 12 25 0 -2
BITMAP
0000
0000
0000
0000
0000
0000
0000
0000
8000
C000
7000
1C00
0700
01C0
0700
1C00
7000
C000
8000
FFC0
0000
FFC0
0000
0000
0000
ENDCHAR
STARTCHAR pi
ENCODING 28
SWIDTH 508 0
DWIDTH 12 0
BBX 12 25 0 -2
BITMAP
0000
0000
0000
0000
0000
0000
0000
0000
0000
0000
0000
0000
FFE0
3180
3180
3180
3180
3180
7180
6180
C180
C180
0000
0000
0000
ENDCHAR
STARTCHAR notequal
ENCODING 29
SWIDTH 508 0
DWIDTH 12 0
BBX 12 25 0 -2
BITMAP
0000
0000
0000
0000
0000
0000
0000
0000
0060
00C0
00C0
0180
FFE0
0300
0600
0C00
FFE0
1800
3000
7000
6000
0000
0000
0000
0000
ENDCHAR
STARTCHAR sterling
ENCODING 30
SWIDTH 508 0
DWIDTH 12 0
BBX 12 25 0 -2
BITMAP
0000
0000
0000
0000
0000
0000
03C0
0660
0E70
0E70
0E00
0E00
0E00
0E00
FFE0
CE00
0E00
0E00
0E00
7FC0
EEE0
EE70
7C70
0000
0000
ENDCHAR
STARTCHAR periodcentered
ENCODING 31
SWIDTH 508 0
DWIDTH 12 0
BBX 12 25 0 -2
BITMAP
0000
0000
0000
0000
0000
0000
0000
0000
0000
0000
0000
0000
0E00
0E00
0E00
0000
0000
0000
0000
0000
0000
0000
0000
0000
0000
ENDCHAR
STARTCHAR space
ENCODING 32
SWIDTH 508 0
DWIDTH 12 0
BBX 12 25 0 -2
BITMAP
0000
0000
0000
0000
0000
0000
0000
0000
0000
0000
0000
0000
0000
0000
0000
0000
0000
0000
0000
0000
0000
0000
0000
0000
0000
ENDCHAR
STARTCHAR exclam
ENCODING 33
SWIDTH 508 0
DWIDTH 12 0
BBX 12 25 0 -2
BITMAP
0000
0000
0000
0F00
0F00
0F00
0F00
0F00
0F00
0F00
0F00
0F00
0600
0600
0600
0600
0600
0000
0000
0F00
0F00
0F00
0000
0000
0000
ENDCHAR
STARTCHAR quotedbl
ENCODING 34
SWIDTH 508 0
DWIDTH 12 0
BBX 12 25 0 -2
BITMAP
0000
7BC0
7BC0
39C0
39C0
3180
6300
0000
0000
0000
0000
0000
0000
0000
0000
0000
0000
0000
0000
0000
0000
0000
0000
0000
0000
ENDCHAR
STARTCHAR numbersign
ENCODING 35
SWIDTH 508 0
DWIDTH 12 0
BBX 12 25 0 -2
BITMAP
0000
0000
0CC0
0CC0
0CC0
0CC0
0CC0
0CC0
7FF0
7FF0
1980
1980
1980
1980
1980
1980
FFE0
FFE0
3300
3300
3300
3300
3300
3300
0000
ENDCHAR
STARTCHAR dollar
ENCODING 36
SWIDTH 508 0
DWIDTH 12 0
BBX 12 25 0 -2
BITMAP
0000
0000
0600
0600
1F80
76E0
E670
E670
E600
E600
F600
7E00
1F80
07E0
06F0
0670
0670
0670
E670
E670
76E0
1F80
0600
0600
0000
ENDCHAR
STARTCHAR percent
ENCODING 37
SWIDTH 508 0
DWIDTH 12 0
BBX 12 25 0 -2
BITMAP
0000
0000
7C30
EE30
EE60
EE60
EEC0
EEC0
7D80
0180
0300
0300
0600
0600
0C00
0C00
1800
1BE0
3770
3770
6770
6770
C770
C3E0
0000
ENDCHAR
STARTCHAR ampersand
ENCODING 38
SWIDTH 508 0
DWIDTH 12 0
BBX 12 25 0 -2
BITMAP
0000
0000
0000
1F00
3180
71C0
71C0
71C0
7380
7700
3E00
1C00
1C00
3E00
6600
E770
E3B0
E1F0
E1E0
E0C0
71E0
3FF0
0000
0000
0000
ENDCHAR
STARTCHAR quotesingle
ENCODING 39
SWIDTH 508 0
DWIDTH 12 0
BBX 12 25 0 -2
BITMAP
0000
1E00
1E00
0E00
0E00
0C00
1800
0000
0000
0000
0000
0000
0000
0000
0000
0000
0000
0000
0000
0000
0000
0000
0000
0000
0000
ENDCHAR
STARTCHAR parenleft
ENCODING 40
SWIDTH 508 0
DWIDTH 12 0
BBX 12 25 0 -2
BITMAP
0000
0060
00C0
01C0
0180
0380
0300
0700
0700
0600
0E00
0E00
0E00
0E00
0E00
0E00
0600
0700
0700
0300
0380
0180
01C0
00C0
0060
ENDCHAR
STARTCHAR parenright
ENCODING 41
SWIDTH 508 0
DWIDTH 12 0
BBX 12 25 0 -2
BITMAP
0000
6000
3000
3800
1800
1C00
0C00
0E00
0E00
0600
0700
0700
0700
0700
0700
0700
0600
0E00
0E00
0C00
1C00
1800
3800
3000
6000
ENDCHAR
STARTCHAR asterisk
ENCODING 42
SWIDTH 508 0
DWIDTH 12 0
BBX 12 25 0 -2
BITMAP
0000
0000
0000
0000
0000
0000
0000
0E00
0E00
EEE0
FFE0
3F80
0E00
0E00
3F80
FFE0
EEE0
0E00
0E00
0000
0000
0000
0000
0000
0000
ENDCHAR
STARTCHAR plus
ENCODING 43
SWIDTH 508 0
DWIDTH 12 0
BBX 12 25 0 -2
BITMAP
0000
0000
0000
0000
0000
0000
0700
0700
0700
0700
0700
0700
7FF0
7FF0
0700
0700
0700
0700
0700
0700
0000
0000
0000
0000
0000
ENDCHAR
STARTCHAR comma
ENCODING 44
SWIDTH 508 0
DWIDTH 12 0
BBX 12 25 0 -2
BITMAP
0000
0000
0000
0000
0000
0000
0000
0000
0000
0000
0000
0000
0000
0000
0000
0000
0000
0000
0000
1E00
1E00
0E00
0E00
0C00
1800
ENDCHAR
STARTCHAR hyphen
ENCODING 45
SWIDTH 508 0
DWIDTH 12 0
BBX 12 25 0 -2
BITMAP
0000
0000
0000
0000
0000
0000
0000
0000
0000
0000
0000
0000
FFF0
FFF0
0000
0000
0000
0000
0000
0000
0000
0000
0000
0000
0000
ENDCHAR
STARTCHAR period
ENCODING 46
SWIDTH 508 0
DWIDTH 12 0
BBX 12 25 0 -2
BITMAP
0000
0000
0000
0000
0000
0000
0000
0000
0000
0000
0000
0000
0000
0000
0000
0000
0000
0000
0000
1E00
1E00
1E00
0000
0000
0000
ENDCHAR
STARTCHAR slash
ENCODING 47
SWIDTH 508 0
DWIDTH 12 0
BBX 12 25 0 -2
BITMAP
0000
0000
0030
0070
0060
00E0
00C0
01C0
0180
0380
0300
0700
0600
0E00
0C00
1C00
1800
3800
3000
7000
6000
E000
C000
C000
0000
ENDCHAR
STARTCHAR zero
ENCODING 48
SWIDTH 508 0
DWIDTH 12 0
BBX 12 25 0 -2
BITMAP
0000
0000
0F00
1F80
39C0
30C0
70E0
6060
E070
E070
E070
E070
E070
E070
E070
E070
6060
70E0
30C0
39C0
1F80
0F00
0000
0000
0000
ENDCHAR
STARTCHAR one
ENCODING 49
SWIDTH 508 0
DWIDTH 12 0
BBX 12 25 0 -2
BITMAP
0000
0000
0700
0F00
1F00
7F00
0700
0700
0700
0700
0700
0700
0700
0700
0700
0700
0700
0700
0700
0700
0700
3FE0
0000
0000
0000
ENDCHAR
STARTCHAR two
ENCODING 50
SWIDTH 508 0
DWIDTH 12 0
BBX 12 25 0 -2
BITMAP
0000
0000
0F00
39C0
70E0
6070
C070
0070
0070
00E0
00E0
01C0
0380
0300
0600
0C00
1800
3030
6030
6070
FFF0
FFF0
0000
0000
0000
ENDCHAR
STARTCHAR three
ENCODING 51
SWIDTH 508 0
DWIDTH 12 0
BBX 12 25 0 -2
BITMAP
0000
0000
3F00
73C0
C1C0
00E0
00E0
00E0
00C0
0180
1F00
3FC0
01E0
00F0
0070
0070
0070
0070
00E0
01C0
0780
FC00
0000
0000
0000
ENDCHAR
STARTCHAR four
ENCODING 52
SWIDTH 508 0
DWIDTH 12 0
BBX 12 25 0 -2
BITMAP
0000
0000
01C0
01C0
03C0
03C0
07C0
07C0
0DC0
0DC0
19C0
19C0
31C0
31C0
61C0
61C0
FFF0
01C0
01C0
01C0
01C0
07F0
0000
0000
0000
ENDCHAR
STARTCHAR five
ENCODING 53
SWIDTH 508 0
DWIDTH 12 0
BBX 12 25 0 -2
BITMAP
0000
0000
7FF0
7FE0
6000
6000
6000
6000
6000
7F80
79C0
70E0
6070
0070
0070
0070
0070
0070
00E0
00E0
03C0
7E00
0000
0000
0000
ENDCHAR
STARTCHAR six
ENCODING 54
SWIDTH 508 0
DWIDTH 12 0
BBX 12 25 0 -2
BITMAP
0000
0000
03C0
0E00
1800
3800
7000
7000
E000
E000
EF80
F8E0
E070
E070
E070
E070
E070
E070
70E0
70E0
39C0
0F00
0000
0000
0000
ENDCHAR
STARTCHAR seven
ENCODING 55
SWIDTH 508 0
DWIDTH 12 0
BBX 12 25 0 -2
BITMAP
0000
0000
FFF0
FFF0
E030
C060
C0C0
00C0
0180
0180
0300
0300
0700
0700
0600
0E00
0E00
0E00
0E00
0E00
0E00
0E00
0000
0000
0000
ENDCHAR
STARTCHAR eight
ENCODING 56
SWIDTH 508 0
DWIDTH 12 0
BBX 12 25 0 -2
BITMAP
0000
0000
0F00
39C0
30C0
70E0
70E0
70E0
70E0
38C0
3D80
1F00
1F80
33E0
60E0
E070
E070
E070
E070
6060
70E0
1F80
0000
0000
0000
ENDCHAR
STARTCHAR nine
ENCODING 57
SWIDTH 508 0
DWIDTH 12 0
BBX 12 25 0 -2
BITMAP
0000
0000
0F00
39C0
70E0
70E0
E070
E070
E070
E070
E070
6070
71F0
1F70
0070
0070
00E0
00E0
01C0
0180
0700
3C00
0000
0000
0000
ENDCHAR
STARTCHAR colon
ENCODING 58
SWIDTH 508 0
DWIDTH 12 0
BBX 12 25 0 -2
BITMAP
0000
0000
0000
0000
0000
0000
0000
0000
0000
0F00
0F00
0F00
0000
0000
0000
0000
0000
0000
0000
0F00
0F00
0F00
0000
0000
0000
ENDCHAR
STARTCHAR semicolon
ENCODING 59
SWIDTH 508 0
DWIDTH 12 0
BBX 12 25 0 -2
BITMAP
0000
0000
0000
0000
0000
0000
0000
0000
0000
0F00
0F00
0F00
0000
0000
0000
0000
0000
0000
0000
0F00
0F00
0700
0700
0600
0C00
ENDCHAR
STARTCHAR less
ENCODING 60
SWIDTH 508 0
DWIDTH 12 0
BBX 12 25 0 -2
BITMAP
0000
0000
0030
0070
00E0
01C0
0380
0700
0E00
1C00
3800
7000
7000
3800
1C00
0E00
0700
0380
01C0
00E0
0070
0030
0000
0000
0000
ENDCHAR
STARTCHAR equal
ENCODING 61
SWIDTH 508 0
DWIDTH 12 0
BBX 12 25 0 -2
BITMAP
0000
0000
0000
0000
0000
0000
0000
0000
FFF0
FFF0
0000
0000
0000
0000
FFF0
FFF0
0000
0000
0000
0000
0000
0000
0000
0000
0000
ENDCHAR
STARTCHAR greater
ENCODING 62
SWIDTH 508 0
DWIDTH 12 0
BBX 12 25 0 -2
BITMAP
0000
0000
6000
7000
3800
1C00
0E00
0700
0380
01C0
00E0
0070
0070
00E0
01C0
0380
0700
0E00
1C00
3800
7000
6000
0000
0000
0000
ENDCHAR
STARTCHAR question
ENCODING 63
SWIDTH 508 0
DWIDTH 12 0
BBX 12 25 0 -2
BITMAP
0000
0000
0000
0F80
38E0
7070
7070
7870
3870
00F0
00E0
01C0
0380
0300
0600
0600
0600
0000
0000
0F00
0F00
0F00
0000
0000
0000
ENDCHAR
STARTCHAR at
ENCODING 64
SWIDTH 508 0
DWIDTH 12 0
BBX 12 25 0 -2
BITMAP
0000
0000
0000
1F80
30C0
70E0
6060
E070
CFB0
DFB0
FBB0
FBB0
FBB0
FBB0
FBB0
FBB0
FFF0
DFE0
E000
6000
7030
30E0
1F80
0000
0000
ENDCHAR
STARTCHAR A
ENCODING 65
SWIDTH 508 0
DWIDTH 12 0
BBX 12 25 0 -2
BITMAP
0000
0000
0000
0700
0700
0700
0F80
0F80
0F80
0DC0
19C0
19C0
19C0
30E0
30E0
3FE0
30E0
6070
6070
6070
6070
F0F0
0000
0000
0000
ENDCHAR
STARTCHAR B
ENCODING 66
SWIDTH 508 0
DWIDTH 12 0
BBX 12 25 0 -2
BITMAP
0000
0000
0000
FF00
71C0
70E0
70E0
70E0
70E0
70E0
70C0
7180
7F00
71C0
70E0
7070
7070
7070
7070
70E0
71C0
FF00
0000
0000
0000
ENDCHAR
STARTCHAR C
ENCODING 67
SWIDTH 508 0
DWIDTH 12 0
BBX 12 25 0 -2
BITMAP
0000
0000
0000
07B0
1CF0
3870
3830
7000
7000
7000
7000
7000
7000
7000
7000
7000
7000
7000
3830
3830
1CE0
0780
0000
0000
0000
ENDCHAR
STARTCHAR D
ENCODING 68
SWIDTH 508 0
DWIDTH 12 0
BBX 12 25 0 -2
BITMAP
0000
0000
0000
FE00
7380
71C0
70E0
70E0
7070
7070
7070
7070
7070
7070
7070
7070
7070
70E0
70E0
71C0
7380
FE00
0000
0000
0000
ENDCHAR
STARTCHAR E
ENCODING 69
SWIDTH 508 0
DWIDTH 12 0
BBX 12 25 0 -2
BITMAP
0000
0000
0000
FFE0
70E0
7060
7030
7000
7000
7180
7180
7380
7F80
7380
7180
7180
7000
7000
7030
7060
70E0
FFE0
0000
0000
0000
ENDCHAR
STARTCHAR F
ENCODING 70
SWIDTH 508 0
DWIDTH 12 0
BBX 12 25 0 -2
BITMAP
0000
0000
0000
FFE0
70E0
7060
7030
7000
7000
7180
7180
7380
7F80
7380
7180
7180
7000
7000
7000
7000
7000
F800
0000
0000
0000
ENDCHAR
STARTCHAR G
ENCODING 71
SWIDTH 508 0
DWIDTH 12 0
BBX 12 25 0 -2
BITMAP
0000
0000
0000
0F60
39E0
70E0
7060
E000
E000
E000
E000
E000
E000
E3F0
E0E0
E0E0
E0E0
E0E0
70E0
70E0
39E0
0F60
0000
0000
0000
ENDCHAR
STARTCHAR H
ENCODING 72
SWIDTH 508 0
DWIDTH 12 0
BBX 12 25 0 -2
BITMAP
0000
0000
0000
F9F0
70E0
70E0
70E0
70E0
70E0
70E0
70E0
70E0
7FE0
70E0
70E0
70E0
70E0
70E0
70E0
70E0
70E0
F9F0
0000
0000
0000
ENDCHAR
STARTCHAR I
ENCODING 73
SWIDTH 508 0
DWIDTH 12 0
BBX 12 25 0 -2
BITMAP
0000
0000
0000
3F80
0E00
0E00
0E00
0E00
0E00
0E00
0E00
0E00
0E00
0E00
0E00
0E00
0E00
0E00
0E00
0E00
0E00
3F80
0000
0000
0000
ENDCHAR
STARTCHAR J
ENCODING 74
SWIDTH 508 0
DWIDTH 12 0
BBX 12 25 0 -2
BITMAP
0000
0000
0000
07F0
01C0
01C0
01C0
01C0
01C0
01C0
01C0
01C0
01C0
01C0
01C0
01C0
71C0
F1C0
E1C0
E1C0
7380
1E00
0000
0000
0000
ENDCHAR
STARTCHAR K
ENCODING 75
SWIDTH 508 0
DWIDTH 12 0
BBX 12 25 0 -2
BITMAP
0000
0000
0000
F9F0
7060
70C0
70C0
7180
7300
7300
7600
7C00
7E00
7E00
7700
7700
7380
7380
71C0
71C0
70E0
F9F0
0000
0000
0000
ENDCHAR
STARTCHAR L
ENCODING 76
SWIDTH 508 0
DWIDTH 12 0
BBX 12 25 0 -2
BITMAP
0000
0000
0000
F800
7000
7000
7000
7000
7000
7000
7000
7000
7000
7000
7000
7000
7000
7000
7030
7060
70E0
FFE0
0000
0000
0000
ENDCHAR
STARTCHAR M
ENCODING 77
SWIDTH 508 0
DWIDTH 12 0
BBX 12 25 0 -2
BITMAP
0000
0000
0000
F070
7070
70F0
78F0
78F0
79F0
7DF0
7DF0
7FF0
6F70
6F70
6F70
6670
6670
6070
6070
6070
6070
F0F0
0000
0000
0000
ENDCHAR
STARTCHAR N
ENCODING 78
SWIDTH 508 0
DWIDTH 12 0
BBX 12 25 0 -2
BITMAP
0000
0000
0000
F0F0
7060
7860
7860
7860
7C60
7C60
6E60
6E60
6760
6760
63E0
63E0
63E0
61E0
61E0
60E0
60E0
F060
0000
0000
0000
ENDCHAR
STARTCHAR O
ENCODING 79
SWIDTH 508 0
DWIDTH 12 0
BBX 12 25 0 -2
BITMAP
0000
0000
0000
1F80
70E0
6060
E070
E070
E070
E070
E070
E070
E070
E070
E070
E070
E070
E070
E070
6060
70E0
1F80
0000
0000
0000
ENDCHAR
STARTCHAR P
ENCODING 80
SWIDTH 508 0
DWIDTH 12 0
BBX 12 25 0 -2
BITMAP
0000
0000
0000
FF00
71C0
70E0
7070
7070
7070
7070
7070
70E0
71C0
7F00
7000
7000
7000
7000
7000
7000
7000
F800
0000
0000
0000
ENDCHAR
STARTCHAR Q
ENCODING 81
SWIDTH 508 0
DWIDTH 12 0
BBX 12 25 0 -2
BITMAP
0000
0000
0000
1F00
71C0
60C0
E0E0
E0E0
E0E0
E0E0
E0E0
E0E0
E0E0
E0E0
E0E0
E0E0
E0E0
EEE0
FBE0
73C0
73C0
1F00
03B0
01F0
00E0
ENDCHAR
STARTCHAR R
ENCODING 82
SWIDTH 508 0
DWIDTH 12 0
BBX 12 25 0 -2
BITMAP
0000
0000
0000
FF00
71C0
70C0
70E0
70E0
70E0
70E0
70C0
71C0
7F00
7300
7180
71C0
71C0
71C0
71C0
71F0
71F0
F8E0
0000
0000
0000
ENDCHAR
STARTCHAR S
ENCODING 83
SWIDTH 508 0
DWIDTH 12 0
BBX 12 25 0 -2
BITMAP
0000
0000
0000
1F60
71E0
E0E0
E060
E000
E000
F000
7800
3F00
0FC0
01E0
00F0
0070
0070
0070
C070
E0E0
F1C0
DF00
0000
0000
0000
ENDCHAR
STARTCHAR T
ENCODING 84
SWIDTH 508 0
DWIDTH 12 0
BBX 12 25 0 -2
BITMAP
0000
0000
0000
FFE0
EEE0
CE60
CE60
CE60
0E00
0E00
0E00
0E00
0E00
0E00
0E00
0E00
0E00
0E00
0E00
0E00
0E00
1F00
0000
0000
0000
ENDCHAR
STARTCHAR U
ENCODING 85
SWIDTH 508 0
DWIDTH 12 0
BBX 12 25 0 -2
BITMAP
0000
0000
0000
F8F0
7060
7060
7060
7060
7060
7060
7060
7060
7060
7060
7060
7060
7060
7060
7060
7060
38C0
1F80
0000
0000
0000
ENDCHAR
STARTCHAR V
ENCODING 86
SWIDTH 508 0
DWIDTH 12 0
BBX 12 25 0 -2
BITMAP
0000
0000
0000
F8F0
7060
7060
7060
7060
38C0
38C0
38C0
38C0
1D80
1D80
1D80
1F80
0F00
0F00
0F00
0600
0600
0600
0000
0000
0000
ENDCHAR
STARTCHAR W
ENCODING 87
SWIDTH 508 0
DWIDTH 12 0
BBX 12 25 0 -2
BITMAP
0000
0000
0000
F070
E030
E030
E030
E030
E030
E730
E730
E730
E730
E730
EFB0
EFB0
7FE0
7FE0
79E0
79E0
39C0
39C0
0000
0000
0000
ENDCHAR
STARTCHAR X
ENCODING 88
SWIDTH 508 0
DWIDTH 12 0
BBX 12 25 0 -2
BITMAP
0000
0000
0000
F8F0
7060
7060
38C0
38C0
1D80
1D80
0F00
0F00
0600
0F00
0F00
1B80
1B80
31C0
31C0
60E0
60E0
F1F0
0000
0000
0000
ENDCHAR
STARTCHAR Y
ENCODING 89
SWIDTH 508 0
DWIDTH 12 0
BBX 12 25 0 -2
BITMAP
0000
0000
0000
F8F0
7060
7060
38C0
38C0
38C0
1D80
1D80
0F80
0F00
0700
0700
0700
0700
0700
0700
0700
0700
1FC0
0000
0000
0000
ENDCHAR
STARTCHAR Z
ENCODING 90
SWIDTH 508 0
DWIDTH 12 0
BBX 12 25 0 -2
BITMAP
0000
0000
0000
7FF0
60E0
60E0
C1C0
01C0
0380
0380
0700
0700
0700
0E00
0E00
1C00
1C00
3800
3830
7060
70E0
FFE0
0000
0000
0000
ENDCHAR
STARTCHAR bracketleft
ENCODING 91
SWIDTH 508 0
DWIDTH 12 0
BBX 12 25 0 -2
BITMAP
0000
00E0
03C0
0F00
0E00
0E00
0E00
0E00
0E00
0E00
0E00
0E00
0E00
0E00
0E00
0E00
0E00
0E00
0E00
0E00
0E00
0E00
0F00
03C0
00E0
ENDCHAR
STARTCHAR backslash
ENCODING 92
SWIDTH 508 0
DWIDTH 12 0
BBX 12 25 0 -2
BITMAP
0000
0000
C000
E000
6000
7000
3000
3800
1800
1C00
0C00
0E00
0600
0700
0300
0380
0180
01C0
00C0
00E0
0060
0070
0030
0030
0000
ENDCHAR
STARTCHAR bracketright
ENCODING 93
SWIDTH 508 0
DWIDTH 12 0
BBX 12 25 0 -2
BITMAP
0000
7000
7C00
1F00
0700
0700
0700
0700
0700
0700
0700
0700
0700
0700
0700
0700
0700
0700
0700
0700
0700
0700
1F00
7C00
7000
ENDCHAR
STARTCHAR asciicircum
ENCODING 94
SWIDTH 508 0
DWIDTH 12 0
BBX 12 25 0 -2
BITMAP
0000
0600
0F00
1F80
3FC0
70E0
E070
0000
0000
0000
0000
0000
0000
0000
0000
0000
0000
0000
0000
0000
0000
0000
0000
0000
0000
ENDCHAR
STARTCHAR underscore
ENCODING 95
SWIDTH 508 0
DWIDTH 12 0
BBX 12 25 0 -2
BITMAP
0000
0000
0000
0000
0000
0000
0000
0000
0000
0000
0000
0000
0000
0000
0000
0000
0000
0000
0000
0000
0000
0000
0000
FFF0
FFF0
ENDCHAR
STARTCHAR grave
ENCODING 96
SWIDTH 508 0
DWIDTH 12 0
BBX 12 25 0 -2
BITMAP
0000
1C00
3E00
1F00
0780
01C0
0000
0000
0000
0000
0000
0000
0000
0000
0000
0000
0000
0000
0000
0000
0000
0000
0000
0000
0000
ENDCHAR
STARTCHAR a
ENCODING 97
SWIDTH 508 0
DWIDTH 12 0
BBX 12 25 0 -2
BITMAP
0000
0000
0000
0000
0000
0000
0000
0000
0000
1E00
7B80
61C0
01C0
01C0
1FC0
71C0
E1C0
E1C0
E1C0
E1F0
73F0
3EE0
0000
0000
0000
ENDCHAR
STARTCHAR b
ENCODING 98
SWIDTH 508 0
DWIDTH 12 0
BBX 12 25 0 -2
BITMAP
0000
0000
0000
7000
F000
7000
7000
7000
7000
7F00
79C0
70E0
70E0
7070
7070
7070
7070
7070
70E0
70E0
79C0
6F00
0000
0000
0000
ENDCHAR
STARTCHAR c
ENCODING 99
SWIDTH 508 0
DWIDTH 12 0
BBX 12 25 0 -2
BITMAP
0000
0000
0000
0000
0000
0000
0000
0000
0000
0F00
39C0
70E0
70E0
E000
E000
E000
E000
E000
7000
7060
39C0
0F00
0000
0000
0000
ENDCHAR
STARTCHAR d
ENCODING 100
SWIDTH 508 0
DWIDTH 12 0
BBX 12 25 0 -2
BITMAP
0000
0000
0000
00E0
03E0
00E0
00E0
00E0
00E0
0FE0
39E0
70E0
70E0
E0E0
E0E0
E0E0
E0E0
E0E0
70E0
70E0
39E0
0FF0
0000
0000
0000
ENDCHAR
STARTCHAR e
ENCODING 101
SWIDTH 508 0
DWIDTH 12 0
BBX 12 25 0 -2
BITMAP
0000
0000
0000
0000
0000
0000
0000
0000
0000
0F00
39C0
70E0
70F0
E070
FFF0
E000
E000
E000
7000
7030
38E0
0F80
0000
0000
0000
ENDCHAR
STARTCHAR f
ENCODING 102
SWIDTH 508 0
DWIDTH 12 0
BBX 12 25 0 -2
BITMAP
0000
0000
0000
01E0
0770
0670
0E00
0E00
0E00
FFE0
0E00
0E00
0E00
0E00
0E00
0E00
0E00
0E00
0E00
0E00
0E00
3F80
0000
0000
0000
ENDCHAR
STARTCHAR g
ENCODING 103
SWIDTH 508 0
DWIDTH 12 0
BBX 12 25 0 -2
BITMAP
0000
0000
0000
0000
0000
0000
0000
0000
0070
0FF0
39C0
70E0
70E0
70E0
39C0
0F00
1800
3800
1F80
37E0
60F0
E070
E070
70E0
1F80
ENDCHAR
STARTCHAR h
ENCODING 104
SWIDTH 508 0
DWIDTH 12 0
BBX 12 25 0 -2
BITMAP
0000
0000
0000
7000
F000
7000
7000
7000
7000
7F80
79C0
70E0
70E0
70E0
70E0
70E0
70E0
70E0
70E0
70E0
70E0
F9F0
0000
0000
0000
ENDCHAR
STARTCHAR i
ENCODING 105
SWIDTH 508 0
DWIDTH 12 0
BBX 12 25 0 -2
BITMAP
0000
0000
0000
1E00
1E00
1E00
0000
0000
0000
3E00
0E00
0E00
0E00
0E00
0E00
0E00
0E00
0E00
0E00
0E00
0E00
3F80
0000
0000
0000
ENDCHAR
STARTCHAR j
ENCODING 106
SWIDTH 508 0
DWIDTH 12 0
BBX 12 25 0 -2
BITMAP
0000
0000
0000
0780
0780
0780
0000
0000
0000
0F80
0380
0380
0380
0380
0380
0380
0380
0380
0380
0380
0380
0380
E380
E700
7E00
ENDCHAR
STARTCHAR k
ENCODING 107
SWIDTH 508 0
DWIDTH 12 0
BBX 12 25 0 -2
BITMAP
0000
0000
0000
7000
F000
7000
7000
7000
7000
71F0
70C0
7180
7300
7600
7C00
7C00
7E00
7700
7380
71C0
70E0
F9F0
0000
0000
0000
ENDCHAR
STARTCHAR l
ENCODING 108
SWIDTH 508 0
DWIDTH 12 0
BBX 12 25 0 -2
BITMAP
0000
0000
0000
0E00
3E00
0E00
0E00
0E00
0E00
0E00
0E00
0E00
0E00
0E00
0E00
0E00
0E00
0E00
0E00
0E00
0E00
3F80
0000
0000
0000
ENDCHAR
STARTCHAR m
ENCODING 109
SWIDTH 508 0
DWIDTH 12 0
BBX 12 25 0 -2
BITMAP
0000
0000
0000
0000
0000
0000
0000
0000
0000
7FE0
FF70
7770
7770
7770
7770
7770
7770
7770
7770
7770
7770
FFF0
0000
0000
0000
ENDCHAR
STARTCHAR n
ENCODING 110
SWIDTH 508 0
DWIDTH 12 0
BBX 12 25 0 -2
BITMAP
0000
0000
0000
0000
0000
0000
0000
0000
0000
7700
FDC0
70E0
70E0
70E0
70E0
70E0
70E0
70E0
70E0
70E0
70E0
F9F0
0000
0000
0000
ENDCHAR
STARTCHAR o
ENCODING 111
SWIDTH 508 0
DWIDTH 12 0
BBX 12 25 0 -2
BITMAP
0000
0000
0000
0000
0000
0000
0000
0000
0000
0F00
39C0
70E0
6060
E070
E070
E070
E070
E070
6060
70E0
39C0
0F00
0000
0000
0000
ENDCHAR
STARTCHAR p
ENCODING 112
SWIDTH 508 0
DWIDTH 12 0
BBX 12 25 0 -2
BITMAP
0000
0000
0000
0000
0000
0000
0000
0000
0000
7F00
F9C0
70E0
7070
7070
7070
7070
7070
70E0
79C0
7F00
7000
7000
7000
7000
F800
ENDCHAR
STARTCHAR q
ENCODING 113
SWIDTH 508 0
DWIDTH 12 0
BBX 12 25 0 -2
BITMAP
0000
0000
0000
0000
0000
0000
0000
0000
0000
0F60
39E0
70E0
E0E0
E0E0
E0E0
E0E0
E0E0
70E0
39E0
0FE0
00E0
00E0
00E0
00E0
01F0
ENDCHAR
STARTCHAR r
ENCODING 114
SWIDTH 508 0
DWIDTH 12 0
BBX 12 25 0 -2
BITMAP
0000
0000
0000
0000
0000
0000
0000
0000
0000
39E0
FBF0
3F70
3C00
3800
3800
3800
3800
3800
3800
3800
3800
FE00
0000
0000
0000
ENDCHAR
STARTCHAR s
ENCODING 115
SWIDTH 508 0
DWIDTH 12 0
BBX 12 25 0 -2
BITMAP
0000
0000
0000
0000
0000
0000
0000
0000
0000
1F60
71E0
E0E0
E060
F000
7E00
1FC0
03E0
00F0
C070
E070
F0E0
DF80
0000
0000
0000
ENDCHAR
STARTCHAR t
ENCODING 116
SWIDTH 508 0
DWIDTH 12 0
BBX 12 25 0 -2
BITMAP
0000
0000
0000
1C00
1C00
1C00
1C00
1C00
1C00
FFC0
1C00
1C00
1C00
1C00
1C00
1C00
1C00
1C00
1C30
1C30
0E60
07C0
0000
0000
0000
ENDCHAR
STARTCHAR u
ENCODING 117
SWIDTH 508 0
DWIDTH 12 0
BBX 12 25 0 -2
BITMAP
0000
0000
0000
0000
0000
0000
0000
0000
0000
70E0
F1E0
70E0
70E0
70E0
70E0
70E0
70E0
70E0
70E0
70E0
3BE0
1EF0
0000
0000
0000
ENDCHAR
STARTCHAR v
ENCODING 118
SWIDTH 508 0
DWIDTH 12 0
BBX 12 25 0 -2
BITMAP
0000
0000
0000
0000
0000
0000
0000
0000
0000
F8F0
7060
7060
38C0
38C0
38C0
1D80
1D80
1F00
0F00
0F00
0600
0600
0000
0000
0000
ENDCHAR
STARTCHAR w
ENCODING 119
SWIDTH 508 0
DWIDTH 12 0
BBX 12 25 0 -2
BITMAP
0000
0000
0000
0000
0000
0000
0000
0000
0000
F070
E030
E030
E730
E730
E730
EF30
EFB0
EFB0
79F0
79E0
70E0
30C0
0000
0000
0000
ENDCHAR
STARTCHAR x
ENCODING 120
SWIDTH 508 0
DWIDTH 12 0
BBX 12 25 0 -2
BITMAP
0000
0000
0000
0000
0000
0000
0000
0000
0000
F8F0
7060
38C0
1D80
1D80
0F00
0600
0F00
1B80
1B80
31C0
60E0
F1F0
0000
0000
0000
ENDCHAR
STARTCHAR y
ENCODING 121
SWIDTH 508 0
DWIDTH 12 0
BBX 12 25 0 -2
BITMAP
0000
0000
0000
0000
0000
0000
0000
0000
0000
F8F0
7060
7060
38C0
38C0
1CC0
1D80
0F80
0F00
0700
0300
0600
0600
EC00
EC00
7800
ENDCHAR
STARTCHAR z
ENCODING 122
SWIDTH 508 0
DWIDTH 12 0
BBX 12 25 0 -2
BITMAP
0000
0000
0000
0000
0000
0000
0000
0000
0000
7FF0
70E0
61C0
C1C0
0380
0700
0600
0E00
1C00
3830
3860
7060
FFE0
0000
0000
0000
ENDCHAR
STARTCHAR braceleft
ENCODING 123
SWIDTH 508 0
DWIDTH 12 0
BBX 12 25 0 -2
BITMAP
0000
0060
00C0
00C0
01C0
01C0
01C0
01C0
01C0
01C0
0180
0300
0600
0300
0180
01C0
01C0
01C0
01C0
01C0
01C0
01C0
00C0
00C0
0060
ENDCHAR
STARTCHAR bar
ENCODING 124
SWIDTH 508 0
DWIDTH 12 0
BBX 12 25 0 -2
BITMAP
0000
0700
0700
0700
0700
0700
0700
0700
0700
0700
0700
0700
0700
0700
0700
0700
0700
0700
0700
0700
0700
0700
0700
0700
0700
ENDCHAR
STARTCHAR braceright
ENCODING 125
SWIDTH 508 0
DWIDTH 12 0
BBX 12 25 0 -2
BITMAP
0000
6000
3000
3000
3800
3800
3800
3800
3800
3800
1800
0C00
0600
0C00
1800
3800
3800
3800
3800
3800
3800
3800
3000
3000
6000
ENDCHAR
STARTCHAR asciitilde
ENCODING 126
SWIDTH 508 0
DWIDTH 12 0
BBX 12 25 0 -2
BITMAP
0000
3C30
7E70
E7E0
C3C0
0000
0000
0000
0000
0000
0000
0000
0000
0000
0000
0000
0000
0000
0000
0000
0000
0000
0000
0000
0000
ENDCHAR
STARTCHAR bullet
ENCODING 149
SWIDTH 508 0
DWIDTH 12 0
BBX 12 25 0 -2
BITMAP
0000
0000
0000
0000
0000
0000
0000
0000
0000
0000
0000
0000
0000
0F00
1F80
1F80
1F80
1F80
0F00
0000
0000
0000
0000
0000
0000
ENDCHAR
STARTCHAR lessequal
ENCODING 152
SWIDTH 508 0
DWIDTH 12 0
BBX 12 25 0 -2
BITMAP
0000
0000
0000
0000
0000
0000
0000
0000
0040
00C0
0380
0E00
3800
E000
3800
0E00
0380
00C0
0040
FFC0
0000
FFC0
0000
0000
0000
ENDCHAR
STARTCHAR greaterequal
ENCODING 153
SWIDTH 508 0
DWIDTH 12 0
BBX 12 25 0 -2
BITMAP
0000
0000
0000
0000
0000
0000
0000
0000
8000
C000
7000
1C00
0700
01C0
0700
1C00
7000
C000
8000
FFC0
0000
FFC0
0000
0000
0000
ENDCHAR
STARTCHAR space
ENCODING 154
SWIDTH 508 0
DWIDTH 12 0
BBX 12 25 0 -2
BITMAP
0000
0000
0000
0000
0000
0000
0000
0000
0000
0000
0000
0000
0000
0000
0000
0000
0000
0000
0000
0000
0000
0000
0000
0000
0000
ENDCHAR
STARTCHAR degree
ENCODING 156
SWIDTH 508 0
DWIDTH 12 0
BBX 12 25 0 -2
BITMAP
0000
0000
0000
0F00
1F80
39C0
39C0
1F80
0F00
0000
0000
0000
0000
0000
0000
0000
0000
0000
0000
0000
0000
0000
0000
0000
0000
ENDCHAR
STARTCHAR twosuperior
ENCODING 157
SWIDTH 508 0
DWIDTH 12 0
BBX 12 25 0 -2
BITMAP
0000
0000
0000
0F80
1DC0
1DC0
01C0
0380
0600
0CC0
1DC0
1FC0
0000
0000
0000
0000
0000
0000
0000
0000
0000
0000
0000
0000
0000
ENDCHAR
STARTCHAR periodcentered
ENCODING 158
SWIDTH 508 0
DWIDTH 12 0
BBX 12 25 0 -2
BITMAP
0000
0000
0000
0000
0000
0000
0000
0000
0000
0000
0000
0000
0E00
0E00
0E00
0000
0000
0000
0000
0000
0000
0000
0000
0000
0000
ENDCHAR
STARTCHAR afii10071
ENCODING 163
SWIDTH 508 0
DWIDTH 12 0
BBX 12 25 0 -2
BITMAP
0000
0000
0000
0000
0000
39C0
39C0
0000
0000
0F00
39C0
70E0
70F0
E070
FFF0
E000
E000
E000
7000
7030
38E0
0F80
0000
0000
0000
ENDCHAR
STARTCHAR afii10023
ENCODING 179
SWIDTH 508 0
DWIDTH 12 0
BBX 12 25 0 -2
BITMAP
3B80
3B80
0000
FFE0
70E0
7060
7030
7000
7000
7180
7180
7380
7F80
7380
7180
7180
7000
7000
7030
7060
70E0
FFE0
0000
0000
0000
ENDCHAR
STARTCHAR copyright
ENCODING 191
SWIDTH 508 0
DWIDTH 12 0
BBX 12 25 0 -2
BITMAP
0000
0000
0000
0F80
38E0
7070
6030
EFB0
DCF0
F870
F070
F010
F010
F010
F010
F830
DCF0
EFB0
6030
7070
38E0
0F80
0000
0000
0000
ENDCHAR
STARTCHAR afii10096
ENCODING 192
SWIDTH 508 0
DWIDTH 12 0
BBX 12 25 0 -2
BITMAP
0000
0000
0000
0000
0000
0000
0000
0000
0000
E380
EEE0
EC60
FC70
FC70
FC70
FC70
FC70
FC70
FC70
EC60
EEE0
E380
0000
0000
0000
ENDCHAR
STARTCHAR afii10065
ENCODING 193
SWIDTH 508 0
DWIDTH 12 0
BBX 12 25 0 -2
BITMAP
0000
0000
0000
0000
0000
0000
0000
0000
0000
1E00
7B80
61C0
01C0
01C0
1FC0
71C0
E1C0
E1C0
E1C0
E1F0
73F0
3EE0
0000
0000
0000
ENDCHAR
STARTCHAR afii10066
ENCODING 194
SWIDTH 508 0
DWIDTH 12 0
BBX 12 25 0 -2
BITMAP
0000
0000
0000
0030
0FE0
1FC0
3800
3000
6000
6F00
F9C0
F0E0
E060
E070
E070
E070
E070
E070
6060
70E0
39C0
0F00
0000
0000
0000
ENDCHAR
STARTCHAR afii10088
ENCODING 195
SWIDTH 508 0
DWIDTH 12 0
BBX 12 25 0 -2
BITMAP
0000
0000
0000
0000
0000
0000
0000
0000
0000
F9F0
70E0
70E0
70E0
70E0
70E0
70E0
70E0
70E0
70E0
70E0
70E0
FFF0
0070
0030
0010
ENDCHAR
STARTCHAR afii10069
ENCODING 196
SWIDTH 508 0
DWIDTH 12 0
BBX 12 25 0 -2
BITMAP
0000
0000
0000
0000
0000
0000
0000
0000
0000
1FF0
0CE0
0CE0
0CE0
0CE0
18E0
18E0
18E0
18E0
30E0
30E0
30E0
7FF0
7070
6030
4010
ENDCHAR
STARTCHAR afii10070
ENCODING 197
SWIDTH 508 0
DWIDTH 12 0
BBX 12 25 0 -2
BITMAP
0000
0000
0000
0000
0000
0000
0000
0000
0000
0F00
39C0
70E0
70F0
E070
FFF0
E000
E000
E000
7000
7030
38E0
0F80
0000
0000
0000
ENDCHAR
STARTCHAR afii10086
ENCODING 198
SWIDTH 508 0
DWIDTH 12 0
BBX 12 25 0 -2
BITMAP
0000
0000
0000
0000
0000
0000
0F80
0700
0700
1FC0
3FE0
7770
7770
7770
7770
7770
7770
7770
7770
7770
3FE0
1FC0
0700
0700
0F80
ENDCHAR
STARTCHAR afii10068
ENCODING 199
SWIDTH 508 0
DWIDTH 12 0
BBX 12 25 0 -2
BITMAP
0000
0000
0000
0000
0000
0000
0000
0000
0000
7FE0
38E0
3860
3830
3800
3800
3800
3800
3800
3800
3800
3800
7C00
0000
0000
0000
ENDCHAR
STARTCHAR afii10087
ENCODING 200
SWIDTH 508 0
DWIDTH 12 0
BBX 12 25 0 -2
BITMAP
0000
0000
0000
0000
0000
0000
0000
0000
0000
F8F0
7060
38C0
1D80
1D80
0F00
0600
0F00
1B80
1B80
31C0
60E0
F1F0
0000
0000
0000
ENDCHAR
STARTCHAR afii10074
ENCODING 201
SWIDTH 508 0
DWIDTH 12 0
BBX 12 25 0 -2
BITMAP
0000
0000
0000
0000
0000
0000
0000
0000
0000
F9F0
70E0
71E0
73E0
73E0
76E0
76E0
7CE0
7CE0
78E0
70E0
70E0
F9F0
0000
0000
0000
ENDCHAR
STARTCHAR afii10075
ENCODING 202
SWIDTH 508 0
DWIDTH 12 0
BBX 12 25 0 -2
BITMAP
0000
0000
0000
0000
0000
39C0
1980
0F00
0000
F9F0
70E0
71E0
73E0
73E0
76E0
76E0
7CE0
7CE0
78E0
70E0
70E0
F9F0
0000
0000
0000
ENDCHAR
STARTCHAR afii10076
ENCODING 203
SWIDTH 508 0
DWIDTH 12 0
BBX 12 25 0 -2
BITMAP
0000
0000
0000
0000
0000
0000
0000
0000
0000
F9F0
70E0
70C0
71C0
7180
7380
7F00
7380
71C0
71C0
70E0
70E0
F9F0
0000
0000
0000
ENDCHAR
STARTCHAR afii10077
ENCODING 204
SWIDTH 508 0
DWIDTH 12 0
BBX 12 25 0 -2
BITMAP
0000
0000
0000
0000
0000
0000
0000
0000
0000
3FF0
18E0
18E0
18E0
18E0
18E0
18E0
18E0
18E0
18E0
F8E0
F8E0
71F0
0000
0000
0000
ENDCHAR
STARTCHAR afii10078
ENCODING 205
SWIDTH 508 0
DWIDTH 12 0
BBX 12 25 0 -2
BITMAP
0000
0000
0000
0000
0000
0000
0000
0000
0000
7070
70F0
78F0
78F0
79F0
7DF0
7DF0
7FF0
6F70
6F70
6F70
6670
76F0
0000
0000
0000
ENDCHAR
STARTCHAR afii10079
ENCODING 206
SWIDTH 508 0
DWIDTH 12 0
BBX 12 25 0 -2
BITMAP
0000
0000
0000
0000
0000
0000
0000
0000
0000
F9F0
70E0
70E0
70E0
70E0
70E0
7FE0
70E0
70E0
70E0
70E0
70E0
F9F0
0000
0000
0000
ENDCHAR
STARTCHAR afii10080
ENCODING 207
SWIDTH 508 0
DWIDTH 12 0
BBX 12 25 0 -2
BITMAP
0000
0000
0000
0000
0000
0000
0000
0000
0000
0F00
39C0
70E0
6060
E070
E070
E070
E070
E070
6060
70E0
39C0
0F00
0000
0000
0000
ENDCHAR
STARTCHAR afii10081
ENCODING 208
SWIDTH 508 0
DWIDTH 12 0
BBX 12 25 0 -2
BITMAP
0000
0000
0000
0000
0000
0000
0000
0000
0000
FFF0
70E0
70E0
70E0
70E0
70E0
70E0
70E0
70E0
70E0
70E0
70E0
F9F0
0000
0000
0000
ENDCHAR
STARTCHAR afii10097
ENCODING 209
SWIDTH 508 0
DWIDTH 12 0
BBX 12 25 0 -2
BITMAP
0000
0000
0000
0000
0000
0000
0000
0000
0000
0FE0
38E0
30E0
70E0
30E0
38E0
0FE0
0CE0
18E0
18E0
78E0
78E0
31F0
0000
0000
0000
ENDCHAR
STARTCHAR afii10082
ENCODING 210
SWIDTH 508 0
DWIDTH 12 0
BBX 12 25 0 -2
BITMAP
0000
0000
0000
0000
0000
0000
0000
0000
0000
7F00
F9C0
70E0
7070
7070
7070
7070
7070
7070
70E0
79C0
7F00
7000
7000
7000
F800
ENDCHAR
STARTCHAR afii10083
ENCODING 211
SWIDTH 508 0
DWIDTH 12 0
BBX 12 25 0 -2
BITMAP
0000
0000
0000
0000
0000
0000
0000
0000
0000
0F00
39C0
70E0
70E0
E000
E000
E000
E000
E000
7000
7060
39C0
0F00
0000
0000
0000
ENDCHAR
STARTCHAR afii10084
ENCODING 212
SWIDTH 508 0
DWIDTH 12 0
BBX 12 25 0 -2
BITMAP
0000
0000
0000
0000
0000
0000
0000
0000
0000
FFE0
EEE0
CE60
CE60
0E00
0E00
0E00
0E00
0E00
0E00
0E00
0E00
1F00
0000
0000
0000
ENDCHAR
STARTCHAR afii10085
ENCODING 213
SWIDTH 508 0
DWIDTH 12 0
BBX 12 25 0 -2
BITMAP
0000
0000
0000
0000
0000
0000
0000
0000
0000
F8F0
7060
7060
38C0
38C0
1CC0
1D80
0F80
0F00
0700
0300
0600
0600
EC00
EC00
7800
ENDCHAR
STARTCHAR afii10072
ENCODING 214
SWIDTH 508 0
DWIDTH 12 0
BBX 12 25 0 -2
BITMAP
0000
0000
0000
0000
0000
0000
0000
0000
0000
E670
36C0
36C0
36C0
36C0
1F80
0F00
3FC0
76E0
76E0
76E0
76E0
E670
0000
0000
0000
ENDCHAR
STARTCHAR afii10067
ENCODING 215
SWIDTH 508 0
DWIDTH 12 0
BBX 12 25 0 -2
BITMAP
0000
0000
0000
0000
0000
0000
0000
0000
0000
7F80
39C0
38E0
38E0
38E0
39C0
3FC0
38E0
3870
3870
3870
38E0
7FC0
0000
0000
0000
ENDCHAR
STARTCHAR afii10094
ENCODING 216
SWIDTH 508 0
DWIDTH 12 0
BBX 12 25 0 -2
BITMAP
0000
0000
0000
0000
0000
0000
0000
0000
0000
F800
7000
7000
7000
7F80
71C0
70E0
7070
7070
7070
70E0
71C0
FF00
0000
0000
0000
ENDCHAR
STARTCHAR afii10093
ENCODING 217
SWIDTH 508 0
DWIDTH 12 0
BBX 12 25 0 -2
BITMAP
0000
0000
0000
0000
0000
0000
0000
0000
0000
E070
E070
E070
E070
E070
FE70
E770
E3F0
E3F0
E3F0
E3F0
E770
FE70
0000
0000
0000
ENDCHAR
STARTCHAR afii10073
ENCODING 218
SWIDTH 508 0
DWIDTH 12 0
BBX 12 25 0 -2
BITMAP
0000
0000
0000
0000
0000
0000
0000
0000
0000
0F00
19C0
30E0
00E0
00E0
01C0
0F80
01C0
00E0
38E0
38E0
19C0
0F00
0000
0000
0000
ENDCHAR
STARTCHAR afii10090
ENCODING 219
SWIDTH 508 0
DWIDTH 12 0
BBX 12 25 0 -2
BITMAP
0000
0000
0000
0000
0000
0000
0000
0000
0000
7770
7770
7770
7770
7770
7770
7770
7770
7770
7770
7770
7770
7FF0
0000
0000
0000
ENDCHAR
STARTCHAR afii10095
ENCODING 220
SWIDTH 508 0
DWIDTH 12 0
BBX 12 25 0 -2
BITMAP
0000
0000
0000
0000
0000
0000
0000
0000
0000
0F00
39C0
60E0
0060
0070
0770
0DF0
0070
0070
0060
60E0
39C0
0F00
0000
0000
0000
ENDCHAR
STARTCHAR afii10091
ENCODING 221
SWIDTH 508 0
DWIDTH 12 0
BBX 12 25 0 -2
BITMAP
0000
0000
0000
0000
0000
0000
0000
0000
0000
EEE0
EEE0
EEE0
EEE0
EEE0
EEE0
EEE0
EEE0
EEE0
EEE0
EEE0
EEE0
FFF0
0070
0030
0010
ENDCHAR
STARTCHAR afii10089
ENCODING 222
SWIDTH 508 0
DWIDTH 12 0
BBX 12 25 0 -2
BITMAP
0000
0000
0000
0000
0000
0000
0000
0000
0000
F9F0
70E0
70E0
70E0
70E0
70E0
39E0
1FE0
00E0
00E0
00E0
00E0
01F0
0000
0000
0000
ENDCHAR
STARTCHAR afii10092
ENCODING 223
SWIDTH 508 0
DWIDTH 12 0
BBX 12 25 0 -2
BITMAP
0000
0000
0000
0000
0000
0000
0000
0000
0000
FC00
FC00
DC00
1C00
1C00
1FC0
1CE0
1C70
1C70
1C70
1C70
1CE0
3FC0
0000
0000
0000
ENDCHAR
STARTCHAR afii10048
ENCODING 224
SWIDTH 508 0
DWIDTH 12 0
BBX 12 25 0 -2
BITMAP
0000
0000
0000
E380
EEE0
EC60
FC70
FC70
FC70
FC70
FC70
FC70
FC70
FC70
FC70
FC70
FC70
FC70
FC70
EC60
EEE0
E380
0000
0000
0000
ENDCHAR
STARTCHAR afii10017
ENCODING 225
SWIDTH 508 0
DWIDTH 12 0
BBX 12 25 0 -2
BITMAP
0000
0000
0000
0700
0700
0700
0F80
0F80
0F80
0DC0
19C0
19C0
19C0
30E0
30E0
3FE0
30E0
6070
6070
6070
6070
F0F0
0000
0000
0000
ENDCHAR
STARTCHAR afii10018
ENCODING 226
SWIDTH 508 0
DWIDTH 12 0
BBX 12 25 0 -2
BITMAP
0000
0000
0000
FFE0
70E0
7060
7030
7000
7000
7000
7000
7000
7F00
71C0
70E0
7070
7070
7070
7070
70E0
71C0
FF00
0000
0000
0000
ENDCHAR
STARTCHAR afii10040
ENCODING 227
SWIDTH 508 0
DWIDTH 12 0
BBX 12 25 0 -2
BITMAP
0000
0000
0000
F9F0
70E0
70E0
70E0
70E0
70E0
70E0
70E0
70E0
70E0
70E0
70E0
70E0
70E0
70E0
70E0
70E0
70E0
FFF0
0070
0030
0010
ENDCHAR
STARTCHAR afii10021
ENCODING 228
SWIDTH 508 0
DWIDTH 12 0
BBX 12 25 0 -2
BITMAP
0000
0000
0000
1FF0
0CE0
0CE0
0CE0
0CE0
0CE0
18E0
18E0
18E0
18E0
18E0
30E0
30E0
30E0
30E0
60E0
60E0
60E0
FFF0
E070
C030
8010
ENDCHAR
STARTCHAR afii10022
ENCODING 229
SWIDTH 508 0
DWIDTH 12 0
BBX 12 25 0 -2
BITMAP
0000
0000
0000
FFE0
70E0
7060
7030
7000
7000
7180
7180
7380
7F80
7380
7180
7180
7000
7000
7030
7060
70E0
FFE0
0000
0000
0000
ENDCHAR
STARTCHAR afii10038
ENCODING 230
SWIDTH 508 0
DWIDTH 12 0
BBX 12 25 0 -2
BITMAP
0000
0000
0000
0F80
0700
0F80
3FE0
3760
7770
7770
7770
7770
7770
7770
7770
7770
7770
3760
3FE0
0F80
0700
0F80
0000
0000
0000
ENDCHAR
STARTCHAR afii10020
ENCODING 231
SWIDTH 508 0
DWIDTH 12 0
BBX 12 25 0 -2
BITMAP
0000
0000
0000
FFE0
70E0
7060
7030
7000
7000
7000
7000
7000
7000
7000
7000
7000
7000
7000
7000
7000
7000
F800
0000
0000
0000
ENDCHAR
STARTCHAR afii10039
ENCODING 232
SWIDTH 508 0
DWIDTH 12 0
BBX 12 25 0 -2
BITMAP
0000
0000
0000
F8F0
7060
7060
38C0
38C0
1D80
1D80
0F00
0F00
0600
0F00
0F00
1B80
1B80
31C0
31C0
60E0
60E0
F1F0
0000
0000
0000
ENDCHAR
STARTCHAR afii10026
ENCODING 233
SWIDTH 508 0
DWIDTH 12 0
BBX 12 25 0 -2
BITMAP
0000
0000
0000
F9F0
70E0
70E0
71E0
71E0
73E0
73E0
73E0
76E0
76E0
76E0
7CE0
7CE0
7CE0
78E0
78E0
70E0
70E0
F9F0
0000
0000
0000
ENDCHAR
STARTCHAR afii10027
ENCODING 234
SWIDTH 508 0
DWIDTH 12 0
BBX 12 25 0 -2
BITMAP
39C0
1980
0F00
F9F0
70E0
70E0
71E0
71E0
73E0
73E0
73E0
76E0
76E0
76E0
7CE0
7CE0
7CE0
78E0
78E0
70E0
70E0
F9F0
0000
0000
0000
ENDCHAR
STARTCHAR afii10028
ENCODING 235
SWIDTH 508 0
DWIDTH 12 0
BBX 12 25 0 -2
BITMAP
0000
0000
0000
F9F0
70E0
70C0
71C0
7180
7180
7380
7300
7300
7F00
7700
7380
7380
71C0
71C0
71E0
70E0
70E0
F9F0
0000
0000
0000
ENDCHAR
STARTCHAR afii10029
ENCODING 236
SWIDTH 508 0
DWIDTH 12 0
BBX 12 25 0 -2
BITMAP
0000
0000
0000
3FF0
18E0
18E0
18E0
18E0
18E0
18E0
18E0
18E0
18E0
18E0
18E0
18E0
18E0
18E0
18E0
F8E0
F8E0
71F0
0000
0000
0000
ENDCHAR
STARTCHAR afii10030
ENCODING 237
SWIDTH 508 0
DWIDTH 12 0
BBX 12 25 0 -2
BITMAP
0000
0000
0000
F070
7070
70F0
78F0
78F0
79F0
7DF0
7DF0
7FF0
6F70
6F70
6F70
6670
6670
6070
6070
6070
6070
F0F0
0000
0000
0000
ENDCHAR
STARTCHAR afii10031
ENCODING 238
SWIDTH 508 0
DWIDTH 12 0
BBX 12 25 0 -2
BITMAP
0000
0000
0000
F9F0
70E0
70E0
70E0
70E0
70E0
70E0
70E0
70E0
7FE0
70E0
70E0
70E0
70E0
70E0
70E0
70E0
70E0
F9F0
0000
0000
0000
ENDCHAR
STARTCHAR afii10032
ENCODING 239
SWIDTH 508 0
DWIDTH 12 0
BBX 12 25 0 -2
BITMAP
0000
0000
0000
1F80
70E0
6060
E070
E070
E070
E070
E070
E070
E070
E070
E070
E070
E070
E070
E070
6060
70E0
1F80
0000
0000
0000
ENDCHAR
STARTCHAR afii10033
ENCODING 240
SWIDTH 508 0
DWIDTH 12 0
BBX 12 25 0 -2
BITMAP
0000
0000
0000
FFF0
70E0
70E0
70E0
70E0
70E0
70E0
70E0
70E0
70E0
70E0
70E0
70E0
70E0
70E0
70E0
70E0
70E0
F9F0
0000
0000
0000
ENDCHAR
STARTCHAR afii10049
ENCODING 241
SWIDTH 508 0
DWIDTH 12 0
BBX 12 25 0 -2
BITMAP
0000
0000
0000
0FF0
38E0
30E0
70E0
70E0
70E0
70E0
30E0
38E0
0FE0
0CE0
18E0
38E0
38E0
38E0
38E0
F8E0
F8E0
71F0
0000
0000
0000
ENDCHAR
STARTCHAR afii10034
ENCODING 242
SWIDTH 508 0
DWIDTH 12 0
BBX 12 25 0 -2
BITMAP
0000
0000
0000
FF00
71C0
70E0
7070
7070
7070
7070
7070
70E0
71C0
7F00
7000
7000
7000
7000
7000
7000
7000
F800
0000
0000
0000
ENDCHAR
STARTCHAR afii10035
ENCODING 243
SWIDTH 508 0
DWIDTH 12 0
BBX 12 25 0 -2
BITMAP
0000
0000
0000
07B0
1CF0
3870
3830
7000
7000
7000
7000
7000
7000
7000
7000
7000
7000
7000
3830
3830
1CE0
0780
0000
0000
0000
ENDCHAR
STARTCHAR afii10036
ENCODING 244
SWIDTH 508 0
DWIDTH 12 0
BBX 12 25 0 -2
BITMAP
0000
0000
0000
FFE0
EEE0
CE60
CE60
CE60
0E00
0E00
0E00
0E00
0E00
0E00
0E00
0E00
0E00
0E00
0E00
0E00
0E00
1F00
0000
0000
0000
ENDCHAR
STARTCHAR afii10037
ENCODING 245
SWIDTH 508 0
DWIDTH 12 0
BBX 12 25 0 -2
BITMAP
0000
0000
0000
F8F0
7060
7060
7060
38C0
38C0
38C0
1D80
1D80
1D80
0F80
0F00
0700
0700
0600
0600
EC00
EC00
7800
0000
0000
0000
ENDCHAR
STARTCHAR afii10024
ENCODING 246
SWIDTH 508 0
DWIDTH 12 0
BBX 12 25 0 -2
BITMAP
0000
0000
0000
E670
76E0
76E0
76E0
76E0
36C0
36C0
36C0
1F80
0F00
3FC0
76E0
76E0
76E0
76E0
76E0
76E0
76E0
E670
0000
0000
0000
ENDCHAR
STARTCHAR afii10019
ENCODING 247
SWIDTH 508 0
DWIDTH 12 0
BBX 12 25 0 -2
BITMAP
0000
0000
0000
FF00
71C0
70E0
70E0
70E0
70E0
70E0
70C0
7180
7F00
71C0
70E0
7070
7070
7070
7070
70E0
71C0
FF00
0000
0000
0000
ENDCHAR
STARTCHAR afii10046
ENCODING 248
SWIDTH 508 0
DWIDTH 12 0
BBX 12 25 0 -2
BITMAP
0000
0000
0000
F800
7000
7000
7000
7000
7000
7000
7000
7000
7F00
71C0
70E0
7070
7070
7070
7070
70E0
71C0
FF00
0000
0000
0000
ENDCHAR
STARTCHAR afii10045
ENCODING 249
SWIDTH 508 0
DWIDTH 12 0
BBX 12 25 0 -2
BITMAP
0000
0000
0000
E070
E070
E070
E070
E070
E070
E070
E070
E070
FC70
E770
E3F0
E3F0
E3F0
E3F0
E3F0
E3F0
E770
FC70
0000
0000
0000
ENDCHAR
STARTCHAR afii10025
ENCODING 250
SWIDTH 508 0
DWIDTH 12 0
BBX 12 25 0 -2
BITMAP
0000
0000
0000
0F80
18E0
3070
3070
0030
0030
0070
0070
00E0
0780
00E0
0070
0070
0030
7030
7070
6070
38E0
0F80
0000
0000
0000
ENDCHAR
STARTCHAR afii10042
ENCODING 251
SWIDTH 508 0
DWIDTH 12 0
BBX 12 25 0 -2
BITMAP
0000
0000
0000
7770
7770
7770
7770
7770
7770
7770
7770
7770
7770
7770
7770
7770
7770
7770
7770
7770
7770
7FF0
0000
0000
0000
ENDCHAR
STARTCHAR afii10047
ENCODING 252
SWIDTH 508 0
DWIDTH 12 0
BBX 12 25 0 -2
BITMAP
0000
0000
0000
1F00
71C0
C0E0
C0E0
0070
0070
0070
0070
0E70
1BF0
0070
0070
0070
0070
E070
E0E0
C0E0
71C0
1F00
0000
0000
0000
ENDCHAR
STARTCHAR afii10043
ENCODING 253
SWIDTH 508 0
DWIDTH 12 0
BBX 12 25 0 -2
BITMAP
0000
0000
0000
EEE0
EEE0
EEE0
EEE0
EEE0
EEE0
EEE0
EEE0
EEE0
EEE0
EEE0
EEE0
EEE0
EEE0
EEE0
EEE0
EEE0
EEE0
FFF0
0070
0030
0010
ENDCHAR
STARTCHAR afii10041
ENCODING 254
SWIDTH 508 0
DWIDTH 12 0
BBX 12 25 0 -2
BITMAP
0000
0000
0000
F9F0
70E0
70E0
70E0
70E0
70E0
70E0
70E0
70E0
39E0
1FE0
00E0
00E0
00E0
00E0
00E0
00E0
00E0
01F0
0000
0000
0000
ENDCHAR
STARTCHAR afii10044
ENCODING 255
SWIDTH 508 0
DWIDTH 12 0
BBX 12 25 0 -2
BITMAP
0000
0000
0000
FC00
FC00
DC00
1C00
1C00
1C00
1C00
1F00
1DC0
1CE0
1C70
1C70
1C70
1C70
1C70
1C70
1CE0
1DC0
3F00
0000
0000
0000
ENDCHAR
ENDFONT
